<svg xmlns="http://www.w3.org/2000/svg" viewBox="0 0 400 300" fill="none">
  <rect width="400" height="300" rx="14" fill="#fdf6f0"/>
  <text x="22" y="34" font-family="Arial" font-size="15" font-weight="700" fill="#2b2b40">Colors</text>
  <!-- stories row -->
  <circle cx="40" cy="78" r="22" fill="#ff8bb0"/>
  <circle cx="92" cy="78" r="22" fill="#7c5cff"/>
  <circle cx="144" cy="78" r="22" fill="#34c7d6"/>
  <circle cx="196" cy="78" r="22" fill="#ffb84d"/>
  <text x="252" y="58" font-family="Arial" font-size="11" font-weight="700" fill="#2b2b40">Transactions</text>
  <rect x="252" y="68" width="126" height="60" rx="8" fill="#fff"/>
  <!-- mini bars -->
  <rect x="262" y="104" width="10" height="16" rx="2" fill="#7c5cff"/>
  <rect x="278" y="94" width="10" height="26" rx="2" fill="#34c7d6"/>
  <rect x="294" y="100" width="10" height="20" rx="2" fill="#ff8bb0"/>
  <rect x="310" y="88" width="10" height="32" rx="2" fill="#ffb84d"/>
  <rect x="326" y="98" width="10" height="22" rx="2" fill="#7c5cff"/>
  <rect x="342" y="92" width="10" height="28" rx="2" fill="#34c7d6"/>
  <!-- line chart card -->
  <rect x="22" y="120" width="220" height="120" rx="10" fill="#ffffff"/>
  <path d="M36 210 C70 160 95 195 120 175 S180 140 226 150" stroke="#7c5cff" stroke-width="3" fill="none" stroke-linecap="round"/>
  <path d="M36 224 C70 200 95 215 120 205 S180 185 226 196" stroke="#34c7d6" stroke-width="3" fill="none" stroke-linecap="round"/>
  <circle cx="120" cy="175" r="4" fill="#fff" stroke="#7c5cff" stroke-width="2"/>
  <!-- donut -->
  <rect x="252" y="138" width="126" height="102" rx="10" fill="#ffffff"/>
  <circle cx="315" cy="190" r="32" stroke="#eef0f5" stroke-width="10" fill="none"/>
  <path d="M315 158 a32 32 0 0 1 27 48" stroke="#7c5cff" stroke-width="10" fill="none" stroke-linecap="round"/>
  <path d="M342 206 a32 32 0 0 1 -54 -3" stroke="#ffb84d" stroke-width="10" fill="none" stroke-linecap="round"/>
  <text x="315" y="195" font-family="Arial" font-size="14" font-weight="700" fill="#2b2b40" text-anchor="middle">90%</text>
</svg>
