<svg xmlns="http://www.w3.org/2000/svg" viewBox="0 0 400 300" fill="none">
  <defs>
    <linearGradient id="bg" x1="0" y1="0" x2="1" y2="1">
      <stop offset="0%" stop-color="#ffd9a8"/>
      <stop offset="100%" stop-color="#ff9f6b"/>
    </linearGradient>
  </defs>
  <rect width="400" height="300" rx="14" fill="url(#bg)"/>
  <!-- floating cubes -->
  <g>
    <path d="M200 90 l46 26 v52 l-46 26 -46-26 v-52 z" fill="#ff8a4c"/>
    <path d="M200 90 l46 26 -46 26 -46-26 z" fill="#ffb277"/>
    <path d="M200 142 l46 -26 v52 l-46 26 z" fill="#e9692f"/>
  </g>
  <g opacity="0.95">
    <path d="M120 150 l34 19 v40 l-34 19 -34-19 v-40 z" fill="#5d7bff"/>
    <path d="M120 150 l34 19 -34 19 -34-19 z" fill="#86a0ff"/>
    <path d="M120 188 l34 -19 v40 l-34 19 z" fill="#3f5be0"/>
  </g>
  <g opacity="0.95">
    <path d="M286 160 l30 17 v36 l-30 17 -30-17 v-36 z" fill="#34c7d6"/>
    <path d="M286 160 l30 17 -30 17 -30-17 z" fill="#69dbe6"/>
    <path d="M286 194 l30 -17 v36 l-30 17 z" fill="#23a4b2"/>
  </g>
  <circle cx="86" cy="70" r="7" fill="#fff" opacity="0.7"/>
  <circle cx="330" cy="96" r="5" fill="#fff" opacity="0.7"/>
</svg>
