<svg xmlns="http://www.w3.org/2000/svg" viewBox="0 0 400 300" fill="none">
  <rect width="400" height="300" rx="14" fill="#1f2233"/>
  <rect x="20" y="20" width="120" height="12" rx="6" fill="#3a3e57"/>
  <!-- left rail -->
  <rect x="20" y="48" width="64" height="232" rx="10" fill="#2a2e44"/>
  <circle cx="52" cy="74" r="9" fill="#7c5cff"/>
  <rect x="40" y="104" width="24" height="8" rx="4" fill="#3a3e57"/>
  <rect x="40" y="128" width="24" height="8" rx="4" fill="#3a3e57"/>
  <rect x="40" y="152" width="24" height="8" rx="4" fill="#3a3e57"/>
  <!-- stat cards -->
  <rect x="100" y="48" width="86" height="56" rx="10" fill="#2a2e44"/>
  <rect x="196" y="48" width="86" height="56" rx="10" fill="#2a2e44"/>
  <rect x="292" y="48" width="88" height="56" rx="10" fill="#2a2e44"/>
  <rect x="112" y="64" width="40" height="8" rx="4" fill="#4d8dff"/>
  <rect x="208" y="64" width="40" height="8" rx="4" fill="#34c7d6"/>
  <rect x="304" y="64" width="40" height="8" rx="4" fill="#ffb84d"/>
  <!-- big chart -->
  <rect x="100" y="116" width="180" height="164" rx="10" fill="#2a2e44"/>
  <path d="M116 250 C150 200 175 235 200 210 S250 175 266 188" stroke="#4d8dff" stroke-width="3" fill="none" stroke-linecap="round"/>
  <path d="M116 264 C150 232 175 246 200 236 S250 214 266 224" stroke="#ff6bcb" stroke-width="3" fill="none" stroke-linecap="round"/>
  <!-- donut card -->
  <rect x="292" y="116" width="88" height="164" rx="10" fill="#2a2e44"/>
  <circle cx="336" cy="180" r="34" stroke="#3a3e57" stroke-width="10" fill="none"/>
  <path d="M336 146 a34 34 0 0 1 28 52" stroke="#4d8dff" stroke-width="10" fill="none" stroke-linecap="round"/>
  <path d="M364 198 a34 34 0 0 1 -57 -3" stroke="#ff8b6b" stroke-width="10" fill="none" stroke-linecap="round"/>
</svg>
